<svg xmlns="http://www.w3.org/2000/svg" width="116.16mm" height="19.38mm" viewBox="0 0 329.28 54.94">
  <defs>
    <style>
      .cls-1 {
        fill: #fff;
      }

      .cls-2 {
        fill: #01a0c6;
      }

      .cls-3, .cls-4 {
        fill: #1b1f23;
      }

      .cls-4 {
        stroke: #fff;
        stroke-miterlimit: 10;
        stroke-width: 0.5px;
      }
    </style>
  </defs>
  <title>Ресурс 6</title>
  <g id="Слой_2" data-name="Слой 2">
    <g id="Слой_1-2" data-name="Слой 1">
      <g>
        <g>
          <g>
            <g>
              <path class="cls-1" d="M163.67,15.83a10.49,10.49,0,0,0-2,2.68,1.14,1.14,0,0,0-.14,1.13,1.11,1.11,0,0,0,.73.42,6.58,6.58,0,0,0,3,.16,3.32,3.32,0,0,0,2.35-1.82,2.25,2.25,0,0,0-.75-2.73,3.27,3.27,0,0,0-1.41-.39,6.27,6.27,0,0,0-3.07.33,3.11,3.11,0,0,0-1.94,2.27A2.1,2.1,0,0,0,162,20.25"/>
              <path class="cls-1" d="M163.23,15.39c-.93.91-2.52,2.48-2.48,3.89,0,1.25,1.43,1.46,2.39,1.6,2.44.34,6-1.08,5.17-4.16-.73-2.74-5-2.58-6.93-1.27s-2.2,4.62.42,5.4a.62.62,0,0,0,.33-1.2c-2.22-.66-.61-3.13.83-3.59s4.66-.43,4.17,1.81c-.37,1.66-2.85,2.24-4.25,1.7-1-.37-.73-.82-.23-1.58a11.45,11.45,0,0,1,1.46-1.72c.58-.56-.31-1.45-.88-.88Z"/>
            </g>
            <g>
              <path class="cls-1" d="M164.58.63c-2.92.43-5.27,2.8-6.47,5.51a24.57,24.57,0,0,0-1.62,8.68A41.1,41.1,0,0,0,157,26.65c.9,3.82,3.21,7.71,7,8.79a4,4,0,0,0,2.48,0,4.76,4.76,0,0,0,2.36-2.82c2.21-5.2,2.25-11,2-16.67a29.71,29.71,0,0,0-1.31-8.51A11.27,11.27,0,0,0,164.21.93"/>
              <path class="cls-1" d="M164.42,0c-8.34,2.19-8.67,11.9-8.72,19.05,0,5.88,1.16,15.2,8.16,17,6.61,1.68,7.44-9,7.66-13.28.41-7.73.48-17.89-7-22.38a.63.63,0,0,0-.63,1.08c6,3.59,6.28,10.78,6.41,17,.09,4.07.37,17-6.12,16.33-6.07-.59-7.19-10.58-7.24-14.92-.08-6.59-.08-16.62,7.8-18.69A.63.63,0,0,0,164.42,0Z"/>
            </g>
            <g>
              <path class="cls-1" d="M176.82,4.15a74.28,74.28,0,0,0-21.35,9.61c-3.15,2.07-6.26,4.54-7.78,8-.8,1.8-1,4.17.44,5.52a4.93,4.93,0,0,0,2.65,1.09c4.52.71,9.05-1.06,13.2-3a44.45,44.45,0,0,0,10.31-6.28,19.38,19.38,0,0,0,6.44-10c.36-1.57.37-3.44-.81-4.53a4,4,0,0,0-2.32-.91,7.56,7.56,0,0,0-6,2.07"/>
              <path class="cls-1" d="M176.65,3.55c-9.4,2.66-21.94,7.14-28,15.34-1.49,2-3.11,5.25-1.74,7.78,1.78,3.3,7,2.64,9.93,2,9.05-2,20.32-8.21,23.8-17.28,1-2.5,1.74-6-1-7.71s-6.26-.25-8.51,1.58c-.63.5.26,1.38.88.88q3.26-3.7,5.58.52,3.21.89,2.27,3c.11,1.51-1.3,3.33-2.14,4.62a25.77,25.77,0,0,1-8,7.34,57.14,57.14,0,0,1-7.63,3.91,31.37,31.37,0,0,1-4.8,1.77c-3.49.88-4.52,1-7.17-1.78q-3.37-1.34-1.8-3.54a8.8,8.8,0,0,1,2.05-3.24,21,21,0,0,1,2-2,47.94,47.94,0,0,1,7.62-5.05A76.85,76.85,0,0,1,177,4.75a.62.62,0,0,0-.34-1.2Z"/>
            </g>
            <g>
              <path class="cls-1" d="M181.14,20.42c-2.74-3.67-7-5.76-11.2-7.7-6.88-3.23-14.17-6.51-21.74-5.84a1.78,1.78,0,0,0-1,.32,1.52,1.52,0,0,0-.43.76c-.8,2.75,1.54,5.35,3.73,7.2,6.24,5.28,13.2,10.06,21.15,11.93,2.73.64,5.79.87,8.14-.64s3.25-5.35,1.08-7.11"/>
              <path class="cls-1" d="M181.58,20c-3.05-3.68-7.06-5.79-11.33-7.8C165.19,9.79,160,7.41,154.42,6.53c-2.23-.35-6.49-1.37-8,.73-1.75,2.4.94,5.75,2.51,7.36C155,20.84,164.29,26.7,173,28c5.09.75,13.25-3.32,8.27-9.1-.53-.61-1.41.28-.88.88l.44,4.59a6.78,6.78,0,0,1-5.72,2.57,19.17,19.17,0,0,1-4.91-.86,37.67,37.67,0,0,1-8.07-3.41,56.9,56.9,0,0,1-6.21-4c-1.38-1-7.77-5-7.91-7.11l1.93-4.16,1.73,0c1.51-.25,4.17.57,5.81,1a59.64,59.64,0,0,1,8.94,3.32c5.19,2.31,10.57,4.61,14.28,9.08.51.62,1.39-.26.88-.88Z"/>
            </g>
          </g>
          <g>
            <path class="cls-2" d="M163.71,15.88a9.89,9.89,0,0,0-1.91,2.49,1.08,1.08,0,0,0-.13,1.06,1.07,1.07,0,0,0,.68.39,6.13,6.13,0,0,0,2.85.15,3.1,3.1,0,0,0,2.19-1.7,2.1,2.1,0,0,0-.7-2.54,3.14,3.14,0,0,0-1.31-.37,5.93,5.93,0,0,0-2.87.31,2.9,2.9,0,0,0-1.81,2.12A2,2,0,0,0,162.13,20"/>
            <path class="cls-3" d="M163.27,15.43c-.87.86-2.36,2.33-2.32,3.66s1.34,1.41,2.26,1.54c2.31.32,5.66-1,4.88-3.94-.69-2.58-4.75-2.44-6.54-1.21s-2.08,4.38.41,5.12a.62.62,0,0,0,.33-1.2c-2-.61-.53-2.85.77-3.27s4.28-.41,3.84,1.63c-.34,1.53-2.63,2.06-3.91,1.57-.87-.34-.65-.72-.19-1.42a9.78,9.78,0,0,1,1.36-1.59c.57-.57-.31-1.45-.89-.89Z"/>
          </g>
          <path class="cls-3" d="M164.4,1.08c-7.43,1.95-8,10.17-8.14,16.63-.15,5.71.73,16.09,8.2,17.17,6.1.88,6.55-9.61,6.67-13.58.2-7,.14-15.82-6.6-19.87a.63.63,0,0,0-.63,1.08c5.41,3.25,5.81,9.56,6,15.25.11,4.28.66,13.38-4,15.19C156.72,36.48,153,5.37,164.73,2.29a.63.63,0,0,0-.33-1.21Z"/>
          <path class="cls-3" d="M175.82,4.37c-8.77,2.49-20.19,6.61-26,14.1-1.62,2.1-3.23,5.33-1.56,7.85,1.82,2.72,6.21,2.18,8.95,1.6,8.14-1.71,18.32-7.36,21.93-15.18,1-2.2,2.27-5.92.08-7.91-2.42-2.2-6.3-.62-8.44,1-.62.48,0,1.57.64,1.08l1.2-.93L179,9.38c.31.95-1.34,3.59-1.76,4.29a22.54,22.54,0,0,1-7.2,7.08,43.24,43.24,0,0,1-5.66,3.12c-2,1-8.54,4.41-10.92,3.22L150,20.39l1.74-2.23a23.71,23.71,0,0,1,3.35-2.82,56.62,56.62,0,0,1,5.59-3.48,71.39,71.39,0,0,1,15.44-6.28.63.63,0,0,0-.33-1.21Z"/>
          <path class="cls-3" d="M180.46,19.72C174.79,13,163.19,8.28,154.61,7.07c-2.08-.29-6-1.19-7.25,1.14s1.1,5.09,2.56,6.56c5.75,5.79,14.52,11.53,22.76,12.54,4.78.59,12-3.32,7.49-8.6-.53-.61-1.41.28-.89.88l.41,4.23-5.43,2.39c-1.36.19-3.21-.48-4.55-.84a34.89,34.89,0,0,1-8-3.49,55.62,55.62,0,0,1-5.48-3.6c-1.22-.9-7-4.55-7.07-6.39L151,8.06l1.75.06c1.44-.23,3.56.51,5,.87A52.52,52.52,0,0,1,166,12c4.93,2.18,10,4.37,13.56,8.58.52.62,1.4-.27.89-.88Z"/>
        </g>
        <g>
          <path class="cls-4" d="M17.62,54.26l-2-6.48H5.53l-2,6.48H.34L8.62,28.84h4.09L21,54.26Zm-7-22.72L6.36,45.12h8.4Z"/>
          <path class="cls-4" d="M43.25,34.82l-3.4,19.44H35.46L33,40,30.21,54.26H25.93L22.39,34.82h3.17L28,52.34l3.1-15h3.67l2.94,15,2.47-17.52Z"/>
          <path class="cls-4" d="M50,45.64a8.24,8.24,0,0,0,.85,3.63,5.08,5.08,0,0,0,2,2.14,5.73,5.73,0,0,0,2.81.69,8,8,0,0,0,2.65-.42,11.34,11.34,0,0,0,2.54-1.33l1.45,2a10.8,10.8,0,0,1-3.13,1.68,10.69,10.69,0,0,1-3.55.61,8.85,8.85,0,0,1-4.8-1.26,7.89,7.89,0,0,1-3-3.54,12.66,12.66,0,0,1-1.05-5.32,12.51,12.51,0,0,1,1.05-5.24,8.59,8.59,0,0,1,3-3.61,7.75,7.75,0,0,1,4.46-1.3,7.63,7.63,0,0,1,4.22,1.14,7.36,7.36,0,0,1,2.74,3.3,12.55,12.55,0,0,1,.95,5.08c0,.57,0,1.14-.08,1.7Zm1.62-7.1a7.56,7.56,0,0,0-1.6,4.7H60.2a7.57,7.57,0,0,0-1.35-4.67A4.28,4.28,0,0,0,55.32,37,4.68,4.68,0,0,0,51.66,38.54Z"/>
          <path class="cls-4" d="M79.9,51.29A2.54,2.54,0,0,0,81.2,49a3.22,3.22,0,0,0-.34-1.58,3.06,3.06,0,0,0-1.34-1.13,14.45,14.45,0,0,0-3-1,20.43,20.43,0,0,1-3.65-1.21,5.74,5.74,0,0,1-2.2-1.71,4.36,4.36,0,0,1-.78-2.67,4.51,4.51,0,0,1,.92-2.81,5.92,5.92,0,0,1,2.6-1.85,10.66,10.66,0,0,1,3.86-.64,12.49,12.49,0,0,1,4,.58,11.13,11.13,0,0,1,3.1,1.56l-1.37,2.1a10.57,10.57,0,0,0-2.56-1.28,9.67,9.67,0,0,0-3.09-.45,5.89,5.89,0,0,0-3.2.67,2.3,2.3,0,0,0-.54,3.3,4,4,0,0,0,1.53,1,32.05,32.05,0,0,0,3.17,1,18.08,18.08,0,0,1,3.45,1.27A5.67,5.67,0,0,1,83.81,46a5.15,5.15,0,0,1,.75,2.89,4.8,4.8,0,0,1-1.14,3.28,6.64,6.64,0,0,1-3,1.91,12.83,12.83,0,0,1-4,.61,11.24,11.24,0,0,1-7.61-2.62l1.77-2a9,9,0,0,0,5.84,2.1A6.43,6.43,0,0,0,79.9,51.29Z"/>
          <path class="cls-4" d="M103.87,35.65a7.42,7.42,0,0,1,2.82,3.5,14,14,0,0,1,1,5.39,13.39,13.39,0,0,1-1,5.29,7.57,7.57,0,0,1-7.39,4.86,8.07,8.07,0,0,1-4.57-1.25,7.7,7.7,0,0,1-2.84-3.51,13.72,13.72,0,0,1-1-5.36,13.69,13.69,0,0,1,1-5.32,7.62,7.62,0,0,1,7.43-4.83A8.09,8.09,0,0,1,103.87,35.65Zm-8.36,3.17q-1.28,1.88-1.27,5.75a10.43,10.43,0,0,0,1.25,5.7,4.77,4.77,0,0,0,7.57,0,10.4,10.4,0,0,0,1.26-5.73,10.36,10.36,0,0,0-1.26-5.72A4.2,4.2,0,0,0,99.31,37,4.29,4.29,0,0,0,95.51,38.82Z"/>
          <path class="cls-4" d="M129.59,35.57c.7.77,1,2.18,1,4.22V54.26h-2.88v-14a17.62,17.62,0,0,0-.09-2.08,1.85,1.85,0,0,0-.41-1,1.26,1.26,0,0,0-1-.34c-1.27,0-2.4.77-3.4,2.32v15.1H120v-14a17.62,17.62,0,0,0-.09-2.08,1.85,1.85,0,0,0-.41-1,1.28,1.28,0,0,0-1-.34c-1.27,0-2.4.77-3.4,2.32v15.1h-2.86V34.82h2.44l.18,2.26a7.76,7.76,0,0,1,1.88-2,4,4,0,0,1,2.35-.69A3.33,3.33,0,0,1,122.59,37a7.13,7.13,0,0,1,1.88-1.91,4.36,4.36,0,0,1,2.41-.65A3.5,3.5,0,0,1,129.59,35.57Z"/>
          <path class="cls-4" d="M138.65,45.64a8.37,8.37,0,0,0,.85,3.63,5.1,5.1,0,0,0,2,2.14,5.7,5.7,0,0,0,2.8.69,8,8,0,0,0,2.65-.42,11.13,11.13,0,0,0,2.54-1.33l1.46,2a10.93,10.93,0,0,1-3.13,1.68,10.75,10.75,0,0,1-3.56.61,8.9,8.9,0,0,1-4.8-1.26,7.89,7.89,0,0,1-3.05-3.54,12.66,12.66,0,0,1-1-5.32,12.51,12.51,0,0,1,1.05-5.24,8.5,8.5,0,0,1,3-3.61,7.76,7.76,0,0,1,4.47-1.3,7.68,7.68,0,0,1,4.22,1.14,7.4,7.4,0,0,1,2.73,3.3,12.55,12.55,0,0,1,1,5.08c0,.57,0,1.14-.07,1.7Zm1.62-7.1a7.63,7.63,0,0,0-1.6,4.7h10.14a7.57,7.57,0,0,0-1.35-4.67,4.28,4.28,0,0,0-3.52-1.6A4.69,4.69,0,0,0,140.27,38.54Z"/>
          <path class="cls-4" d="M195.52,51.12a7.23,7.23,0,0,1-3.19,2.63,12.24,12.24,0,0,1-5,.94,14.33,14.33,0,0,1-5-.84,10.93,10.93,0,0,1-3.9-2.41l1.9-2.14a9.8,9.8,0,0,0,3.11,2,10.6,10.6,0,0,0,4,.69,8,8,0,0,0,2.94-.52,4.86,4.86,0,0,0,2.16-1.59,4.15,4.15,0,0,0,.81-2.59,4.2,4.2,0,0,0-.49-2.13,4.39,4.39,0,0,0-1.69-1.52,16.76,16.76,0,0,0-3.4-1.32,24.89,24.89,0,0,1-4.48-1.73,7.49,7.49,0,0,1-2.74-2.3,5.55,5.55,0,0,1-1-3.32,5.77,5.77,0,0,1,1-3.37,7,7,0,0,1,2.92-2.32,10.33,10.33,0,0,1,4.27-.84,13.15,13.15,0,0,1,4.52.72,11.51,11.51,0,0,1,3.6,2.17L194,33.42a8.89,8.89,0,0,0-2.88-1.73,9.2,9.2,0,0,0-3.25-.58,7.45,7.45,0,0,0-2.57.42,4.07,4.07,0,0,0-1.83,1.26,3.24,3.24,0,0,0-.68,2.07,3,3,0,0,0,.6,1.9,5.13,5.13,0,0,0,2,1.42,26.66,26.66,0,0,0,3.86,1.39,19.75,19.75,0,0,1,3.88,1.52,7,7,0,0,1,2.56,2.35,6.69,6.69,0,0,1,1,3.79A6.92,6.92,0,0,1,195.52,51.12Z"/>
          <path class="cls-4" d="M216.52,50.31l1.52,2A9.59,9.59,0,0,1,215,54.05a10.26,10.26,0,0,1-3.5.64,9.32,9.32,0,0,1-4.92-1.24,7.81,7.81,0,0,1-3.13-3.51,12.22,12.22,0,0,1-1.07-5.31,12.33,12.33,0,0,1,1.08-5.26,8.53,8.53,0,0,1,3.16-3.63,8.94,8.94,0,0,1,4.91-1.32,10,10,0,0,1,6.5,2.25l-1.51,2.07a8.79,8.79,0,0,0-5-1.74,5.39,5.39,0,0,0-3,.85,5.55,5.55,0,0,0-2,2.57,10.89,10.89,0,0,0-.72,4.21c0,2.48.52,4.34,1.56,5.55a5.24,5.24,0,0,0,4.2,1.83A8.71,8.71,0,0,0,216.52,50.31Z"/>
          <path class="cls-4" d="M225.75,34.82h8.92v17h5.48v2.45H225.57V51.81h6V37.28h-5.82Zm8.09-8.48a2.07,2.07,0,0,1,.63,1.54,2.16,2.16,0,0,1-.63,1.59,2.22,2.22,0,0,1-1.64.63A2.17,2.17,0,0,1,230,27.88a2.07,2.07,0,0,1,.63-1.54,2.2,2.2,0,0,1,1.61-.62A2.26,2.26,0,0,1,233.84,26.34Z"/>
          <path class="cls-4" d="M249.42,45.64a8.24,8.24,0,0,0,.85,3.63,5.08,5.08,0,0,0,2,2.14,5.73,5.73,0,0,0,2.81.69,8,8,0,0,0,2.65-.42,11.08,11.08,0,0,0,2.53-1.33l1.46,2a10.8,10.8,0,0,1-3.13,1.68,10.69,10.69,0,0,1-3.55.61,8.85,8.85,0,0,1-4.8-1.26,8,8,0,0,1-3.06-3.54,12.82,12.82,0,0,1-1-5.32,12.51,12.51,0,0,1,1.05-5.24,8.59,8.59,0,0,1,3-3.61,7.75,7.75,0,0,1,4.46-1.3,7.63,7.63,0,0,1,4.22,1.14,7.36,7.36,0,0,1,2.74,3.3,12.55,12.55,0,0,1,.95,5.08c0,.57,0,1.14-.08,1.7Zm1.62-7.1a7.56,7.56,0,0,0-1.6,4.7h10.14a7.57,7.57,0,0,0-1.35-4.67A4.28,4.28,0,0,0,254.7,37,4.68,4.68,0,0,0,251,38.54Z"/>
          <path class="cls-4" d="M269.14,54.26V34.82h2.64l.24,2.7a8,8,0,0,1,2.92-2.28,8.24,8.24,0,0,1,3.5-.82,5.32,5.32,0,0,1,4.13,1.47,6.14,6.14,0,0,1,1.34,4.25V54.26h-3.1V42.43a17.27,17.27,0,0,0-.24-3.32,2.69,2.69,0,0,0-.94-1.7,3.45,3.45,0,0,0-2.15-.56,5.15,5.15,0,0,0-3,1,8.82,8.82,0,0,0-2.28,2.28V54.26Z"/>
          <path class="cls-4" d="M305.14,50.31l1.51,2a9.65,9.65,0,0,1-3.06,1.71,10.36,10.36,0,0,1-3.51.64,9.32,9.32,0,0,1-4.92-1.24A7.87,7.87,0,0,1,292,49.94,12.36,12.36,0,0,1,291,44.63a12.19,12.19,0,0,1,1.09-5.26,8.47,8.47,0,0,1,3.16-3.63,8.9,8.9,0,0,1,4.91-1.32,10,10,0,0,1,6.49,2.25l-1.51,2.07a8.77,8.77,0,0,0-5-1.74,5.39,5.39,0,0,0-3,.85,5.53,5.53,0,0,0-2,2.57,10.69,10.69,0,0,0-.73,4.21c0,2.48.52,4.34,1.56,5.55a5.24,5.24,0,0,0,4.2,1.83A8.76,8.76,0,0,0,305.14,50.31Z"/>
          <path class="cls-4" d="M315.88,45.64a8.24,8.24,0,0,0,.85,3.63,5.08,5.08,0,0,0,2,2.14,5.73,5.73,0,0,0,2.81.69,8,8,0,0,0,2.65-.42,11.08,11.08,0,0,0,2.53-1.33l1.46,2a10.8,10.8,0,0,1-3.13,1.68,10.69,10.69,0,0,1-3.55.61,8.85,8.85,0,0,1-4.8-1.26,8,8,0,0,1-3.06-3.54,12.82,12.82,0,0,1-1-5.32,12.51,12.51,0,0,1,1.05-5.24,8.59,8.59,0,0,1,3-3.61,7.75,7.75,0,0,1,4.46-1.3,7.63,7.63,0,0,1,4.22,1.14,7.36,7.36,0,0,1,2.74,3.3,12.55,12.55,0,0,1,.95,5.08c0,.57,0,1.14-.08,1.7Zm1.62-7.1a7.56,7.56,0,0,0-1.6,4.7H326a7.57,7.57,0,0,0-1.35-4.67,4.28,4.28,0,0,0-3.53-1.6A4.68,4.68,0,0,0,317.5,38.54Z"/>
        </g>
      </g>
    </g>
  </g>
</svg>
